<svg width="1440" height="101" viewBox="0 0 1440 101" fill="none" xmlns="http://www.w3.org/2000/svg">
<g clip-path="url(#clip0)">
<path d="M0 -527.339H1440V1105.62H0V-527.339Z" fill="url(#paint0_radial)"/>
<path fill-rule="evenodd" clip-rule="evenodd" d="M1370.57 -217.97C1287.33 -217.97 1216.4 -161.214 1189.48 -81.7457C1168.6 -90.4112 1145.92 -95.2001 1122.19 -95.2001C1084.23 -95.2001 1048.93 -83.0103 1019.41 -62.1535C1000.43 -113.555 953.765 -149.912 899.185 -149.912C852.617 -149.912 811.808 -123.458 789.05 -83.763C741.906 -121.385 683.545 -143.642 620.329 -143.642C498.576 -143.642 394.75 -61.077 354.691 54.8023C325.148 31.9824 288.946 18.4993 249.788 18.4993C228.704 18.5186 207.808 22.4702 188.173 30.1516V737.246H1440V-204.138C1418 -213.284 1394.4 -217.985 1370.57 -217.97V-217.97Z" fill="white"/>
<path fill-rule="evenodd" clip-rule="evenodd" d="M1204.29 179.684H1440V-9.40929C1425.32 -12.7613 1421.01 20.8451 1409.27 21.7349C1395.16 22.7826 1392.46 -63.6557 1374.33 -62.9221C1356.18 -62.2157 1351.73 24.3295 1332.78 37.2161C1313.84 50.0772 1290.09 7.56454 1278.45 37.2161C1266.79 66.8677 1276.37 122.765 1256.12 122.109C1235.87 121.428 1205.63 109.903 1204.29 179.684V179.684Z" fill="#248F8B"/>
<path d="M1285.59 147.622L1306.68 160.378M1374.76 -29.9441C1374.76 -29.9441 1381.71 94.3966 1375.67 179.84L1374.76 -29.9441ZM1440 154.248C1438.84 163.574 1437.37 172.061 1435.47 179.133L1440 154.248ZM1433.79 26.975L1440 36.4044L1433.79 26.975ZM1429.26 62.1792L1440 74.908L1429.26 62.1792ZM1426.06 93.7157L1440 110.846L1426.06 93.7157ZM1383.94 -21.6677L1375.96 -4.14367L1383.94 -21.6677ZM1360.66 -10.8748L1376.61 13.1172L1360.66 -10.8748ZM1394.47 20.8706L1377.63 50.1824L1394.47 20.8706ZM1352.37 35.5129L1378.14 74.9606L1352.37 35.5129ZM1408.6 55.2376L1378.12 101.155L1408.6 55.2376ZM1344.07 85.2033L1377.72 133.372L1344.07 85.2033ZM1413.3 112.077L1377.18 151.263L1413.3 112.077ZM1293.07 55.2376C1293.07 55.2376 1306.29 118.888 1307.41 179.84L1293.07 55.2376ZM1302.48 60.6595L1297.65 80.6457L1302.48 60.6595ZM1318.17 70.7443L1303.14 119.91L1318.17 70.7443ZM1322.43 114.199L1306.37 155.479L1322.43 114.199ZM1287.03 79.2822L1298.93 88.6335L1287.03 79.2822ZM1280.54 109.275L1303.99 127.558L1280.54 109.275Z" stroke="#94CFB9" stroke-miterlimit="10"/>
<path fill-rule="evenodd" clip-rule="evenodd" d="M1187.02 179.684C1193.59 134.683 1177.9 107.966 1159.25 104.665C1140.08 101.26 1127.14 94.2403 1121.35 63.7771C1115.56 33.3138 1112 2.37856 1090.6 6.41311C1069.2 10.4206 1061.63 37.6083 1059.85 68.8322C1058.07 100.029 1044.68 96.4665 1026.4 108.698C1012.12 118.259 1022.34 161.321 1027.47 179.684H1187.02V179.684Z" fill="#37B4B1"/>
<path d="M1167.56 159.225L1150.9 165.695M1092.25 28.9126C1092.25 28.9126 1100.03 118.26 1093.25 179.684L1092.25 28.9126ZM1102.54 34.8592L1093.59 47.4572L1102.54 34.8592ZM1076.4 42.6125L1094.32 59.8479L1076.4 42.6125ZM1114.36 65.4261L1095.47 86.4871L1114.36 65.4261ZM1067.1 75.9558L1096.02 104.298L1067.1 75.9558ZM1130.2 90.1277L1096 123.131L1130.2 90.1277ZM1075.41 126.458L1095.55 146.286L1075.41 126.458ZM1120.85 131.749L1094.95 159.147L1120.85 131.749ZM1043.66 123.053C1043.66 123.053 1051.47 135.862 1052.72 179.684L1043.66 123.053ZM1062.57 144.007L1051.57 162.185L1062.57 144.007ZM1028.23 156.502L1051.89 165.695L1028.23 156.502ZM1155.32 132.902C1155.32 132.902 1151.32 135.862 1150.06 179.684L1155.32 132.902ZM1140.24 144.06L1151.21 162.187L1140.24 144.06Z" stroke="#94CFB9" stroke-miterlimit="10"/>
<path fill-rule="evenodd" clip-rule="evenodd" d="M1040.83 179.526C1040.83 179.526 1049.74 62.8076 1029.38 60.2927C1009 57.7779 1012.62 109.17 992.346 108.725C972.099 108.28 961.019 91.3317 953.605 109.562C946.193 127.794 946.01 145.527 928.513 140.052C910.989 134.578 885.136 179.5 885.136 179.5H1040.83V179.526Z" fill="#229E9D"/>
<path opacity="0.11" fill-rule="evenodd" clip-rule="evenodd" d="M928.487 140.052C946.011 145.527 946.195 127.794 953.581 109.562C959.84 94.135 968.747 103.879 983.573 107.519V179.5H885.085C885.11 179.526 910.963 134.578 928.487 140.052V140.052Z" fill="black" stroke="#7DBD77" stroke-width="0.216" stroke-miterlimit="22.926"/>
<path fill-rule="evenodd" clip-rule="evenodd" d="M279.878 179.684H0V54.7129C5.7887 22.8351 15.1926 -2.83451 30.4904 -3.67172C71.5344 -5.8979 73.3682 99.3736 134.033 92.6154C181.652 87.3242 244.307 88.6605 279.878 132.902V179.684V179.684Z" fill="#248F8B"/>
<path fill-rule="evenodd" clip-rule="evenodd" d="M139.074 179.526C139.074 179.526 126.763 18.3046 154.895 14.8473C183.028 11.3885 178.051 82.3472 206.052 81.7444C234.026 81.1432 249.324 57.7252 259.565 82.8973C269.781 108.097 270.042 132.588 294.245 125.018C318.449 117.448 354.176 179.526 354.176 179.526H139.074Z" fill="#37B4B1"/>
<path opacity="0.11" fill-rule="evenodd" clip-rule="evenodd" d="M294.245 125.018C270.042 132.588 269.806 108.07 259.565 82.8974C250.922 61.602 238.636 75.0659 218.127 80.0955V179.526H354.176C354.151 179.526 318.422 117.448 294.245 125.018Z" fill="black" stroke="#7DBD77" stroke-width="0.216" stroke-miterlimit="22.926"/>
<path d="M145.151 141.284L164.796 154.931M238.531 117.499C238.531 117.499 231.119 115.77 229.285 179.5L238.531 117.499ZM214.984 127.689L230.961 154.039L214.984 127.689ZM256.397 149.09L230.491 159.147L256.397 149.09ZM165.085 57.4637C165.085 57.4637 158.668 105.685 166.839 179.684L165.085 57.4637ZM178.941 73.704L163.513 88.844L178.941 73.704ZM154.058 102.386L163.513 111.527L154.058 102.386ZM193.217 108.069L164.063 139.424L193.217 108.069Z" stroke="#94CFB9" stroke-miterlimit="10"/>
<path fill-rule="evenodd" clip-rule="evenodd" d="M1319.17 117.342C1294.41 136.123 1254.34 119.018 1232.12 99.793C1228.25 96.4393 1225.39 92.0125 1224.34 86.9844C1219.29 62.8856 1257.35 56.9661 1258.45 35.382C1258.95 25.9272 1251.82 18.0941 1246.56 10.2371C1234.59 -7.7318 1231.18 -30.4688 1233.72 -51.9205C1236.26 -73.3738 1244.3 -93.8049 1253.65 -113.266C1261.3 -129.193 1274.98 -147.187 1292.24 -143.363C1303.32 -140.901 1310.42 -129.873 1313.66 -119.003C1318.09 -104.046 1317.46 -87.9636 1314.48 -72.6402C1313.17 -65.8565 1311.39 -58.8096 1313.22 -52.131C1317.91 -35.052 1341.85 -31.2024 1350.52 -15.7738C1359.37 -0.0836984 1348.82 19.0382 1339.05 34.1781C1330.69 47.1429 1325.56 55.1848 1331.03 66.2392C1332.47 69.1718 1334.62 71.6866 1337.11 73.8347C1342.37 78.3923 1352.25 92.2485 1319.17 117.342V117.342Z" fill="#EF855A"/>
<path fill-rule="evenodd" clip-rule="evenodd" d="M1286.63 -99.0688C1286.61 -93.6995 1281.18 199.852 1281.18 199.852L1302.45 201.713L1286.63 -99.0688V-99.0688Z" fill="#9C4F5F"/>
<path fill-rule="evenodd" clip-rule="evenodd" d="M1287.55 109.014L1243.99 62.8332L1291.32 105.137C1292.45 106.132 1292.53 107.861 1291.53 108.961C1291.29 109.227 1291.01 109.443 1290.69 109.597C1290.37 109.751 1290.02 109.841 1289.66 109.86C1289.31 109.88 1288.95 109.829 1288.62 109.71C1288.28 109.592 1287.97 109.408 1287.71 109.17C1287.65 109.117 1287.6 109.065 1287.55 109.014ZM1283.38 -24.1026L1265.76 -58.6531L1286.87 -26.0944C1287.01 -25.873 1287.11 -25.6252 1287.16 -25.3653C1287.21 -25.1054 1287.2 -24.8385 1287.15 -24.5803C1287.09 -24.322 1286.98 -24.0775 1286.83 -23.8608C1286.68 -23.6441 1286.49 -23.4597 1286.27 -23.3181C1286.04 -23.1743 1285.8 -23.0757 1285.54 -23.0281C1285.28 -22.9805 1285.01 -22.9848 1284.75 -23.0407C1284.49 -23.0966 1284.25 -23.203 1284.03 -23.3538C1283.82 -23.5045 1283.63 -23.6967 1283.49 -23.9192C1283.46 -23.9719 1283.41 -24.0245 1283.38 -24.1026V-24.1026ZM1290.9 48.3486L1333.05 -15.2234L1290.9 48.3486ZM1288.73 46.9071L1333.05 -15.2234L1293.08 49.7887C1292.9 50.0818 1292.66 50.3367 1292.39 50.5389C1292.11 50.7412 1291.8 50.8866 1291.46 50.967C1291.13 51.0473 1290.78 51.0608 1290.44 51.007C1290.1 50.9531 1289.78 50.8328 1289.49 50.653C1289.19 50.4746 1288.94 50.2402 1288.74 49.9632C1288.54 49.6861 1288.39 49.3719 1288.31 49.0385C1288.23 48.7051 1288.22 48.3592 1288.27 48.0205C1288.32 47.6818 1288.44 47.3571 1288.62 47.0649C1288.65 47.0123 1288.7 46.9597 1288.73 46.9071Z" fill="#9C4F5F"/>
<path fill-rule="evenodd" clip-rule="evenodd" d="M1255.38 131.802C1236.42 146.181 1205.69 133.085 1188.7 118.363C1185.74 115.797 1183.54 112.391 1182.72 108.542C1178.85 90.0751 1208 85.543 1208.86 68.9886C1209.23 61.7599 1203.78 55.7352 1199.78 49.7105C1190.61 35.9324 1187.99 18.5137 1189.93 2.09001C1191.86 -14.3592 1198.02 -29.9967 1205.2 -44.9277C1211.06 -57.1334 1221.54 -70.9114 1234.77 -67.9772C1243.26 -66.0907 1248.7 -57.6564 1251.19 -49.3019C1254.6 -37.8281 1254.1 -25.5172 1251.82 -13.7835C1250.8 -8.59599 1249.46 -3.17403 1250.85 1.93374C1254.44 15.0038 1272.8 17.9635 1279.46 29.804C1286.24 41.8264 1278.15 56.4688 1270.65 68.0988C1264.24 78.0257 1260.31 84.1812 1264.53 92.6681C1265.62 94.9214 1267.28 96.8334 1269.16 98.4823C1273.2 101.941 1280.74 112.549 1255.38 131.802V131.802Z" fill="#F3AF47"/>
<path fill-rule="evenodd" clip-rule="evenodd" d="M1228.33 -38.222C1228.3 -33.8207 1222.22 176.513 1222.22 176.513L1239.72 178.059L1228.33 -38.222Z" fill="#9C4F5F"/>
<path fill-rule="evenodd" clip-rule="evenodd" d="M1233.15 88.7133L1268.98 50.7055L1230.03 85.5175C1229.59 85.9109 1229.32 86.4623 1229.29 87.0512C1229.25 87.6402 1229.45 88.2188 1229.84 88.6606C1230.24 89.1002 1230.79 89.3664 1231.38 89.4007C1231.97 89.4351 1232.55 89.2349 1232.99 88.844C1233.05 88.8083 1233.1 88.7642 1233.15 88.7133V88.7133ZM1225.65 23.4651L1211.14 -4.95532L1228.51 21.8146C1229.01 22.5737 1228.8 23.5959 1228.01 24.0935C1227.83 24.2128 1227.63 24.2947 1227.41 24.3343C1227.2 24.374 1226.98 24.3705 1226.77 24.3242C1226.56 24.2778 1226.35 24.1895 1226.18 24.0644C1226 23.9394 1225.85 23.7801 1225.73 23.5959C1225.71 23.5433 1225.68 23.5162 1225.65 23.4651V23.4651ZM1231.86 83.0553L1266.52 30.7465L1231.86 83.0553Z" fill="#9C4F5F"/>
<path fill-rule="evenodd" clip-rule="evenodd" d="M732.429 179.684C737.798 142.985 724.99 121.219 709.797 118.521C694.16 115.745 683.63 110.034 678.914 85.2034C674.199 60.3709 671.292 35.1734 653.848 38.4473C636.402 41.7211 630.221 63.8808 628.781 89.3145C627.339 114.75 616.417 111.841 601.539 121.822C589.909 129.627 598.212 164.727 602.429 179.684H732.429V179.684Z" fill="#229E9D"/>
<path d="M716.555 162.998L702.986 168.262M655.157 56.8083C655.157 56.8083 661.496 129.626 655.969 179.684L655.157 56.8083ZM663.566 61.6546L656.257 71.9228L663.566 61.6546ZM642.27 67.968L656.86 82.0076L642.27 67.968ZM673.204 86.5652L657.803 103.722L673.204 86.5652ZM634.673 95.1557L658.247 118.26L634.673 95.1557ZM686.092 106.708L658.247 133.583L686.092 106.708ZM641.457 136.307L657.881 152.469L641.457 136.307ZM678.495 140.603L657.383 162.946L678.495 140.603ZM615.578 133.53C615.578 133.53 621.943 143.982 622.965 179.684L615.578 133.53ZM631.007 150.608L622.023 165.408L631.007 150.608ZM603.006 160.798L622.284 168.262L603.006 160.798ZM706.601 141.571C706.601 141.571 703.328 143.982 702.305 179.709L706.601 141.571ZM694.29 150.66L703.248 165.408L694.29 150.66Z" stroke="#94CFB9" stroke-miterlimit="10"/>
<path fill-rule="evenodd" clip-rule="evenodd" d="M629.278 179.684C632.997 154.301 624.143 139.214 613.614 137.354C602.795 135.442 595.514 131.46 592.24 114.303C588.966 97.1204 586.949 79.6761 574.874 81.9278C562.798 84.1811 558.529 99.5299 557.508 117.132C556.511 134.734 548.968 132.719 538.648 139.633C530.58 145.029 536.343 169.31 539.25 179.684H629.278V179.684Z" fill="#37B4B1"/>
<path fill-rule="evenodd" clip-rule="evenodd" d="M735.441 186.022C723.811 194.849 704.978 186.807 694.552 177.772C692.718 176.199 691.383 174.104 690.886 171.747C688.527 160.431 706.393 157.655 706.916 147.517C707.152 143.09 703.798 139.397 701.336 135.704C695.705 127.269 694.107 116.582 695.313 106.524C696.491 96.4394 700.263 86.8522 704.662 77.7115C708.252 70.2196 714.669 61.7853 722.789 63.5666C728.002 64.7196 731.329 69.9055 732.847 75.0133C734.942 82.0331 734.628 89.603 733.241 96.7807C732.612 99.9765 731.799 103.276 732.638 106.419C734.838 114.435 746.075 116.242 750.162 123.498C754.326 130.858 749.349 139.842 744.765 146.967C740.836 153.044 738.427 156.816 740.994 162.029C741.675 163.416 742.67 164.596 743.848 165.591C746.363 167.739 750.974 174.235 735.441 186.022V186.022Z" fill="#F3AF47"/>
<path fill-rule="evenodd" clip-rule="evenodd" d="M20.5619 149.796C20.5619 149.796 81.0961 114.303 87.0155 133.399C93.7993 155.27 20.5619 149.796 20.5619 149.796V149.796ZM15.7953 148.592C14.8784 137.38 8.85369 112.34 0 97.8283V133.739C8.38166 142.331 15.7953 148.592 15.7953 148.592ZM43.8219 104.795C43.8219 104.795 105.638 78.7064 109.462 97.2255C113.602 117.395 43.8219 104.795 43.8219 104.795V104.795ZM40.0234 104.429C40.0234 104.429 26.325 39.6255 2.88159 50.8887C1.72864 51.4389 0.786179 52.0672 0.0271096 52.7753V66.4481C9.14233 82.8973 40.0234 104.429 40.0234 104.429ZM64.1223 66.6044C74.7827 58.0919 125.782 39.2858 127.615 53.1421C130.81 77.2664 64.1223 66.6044 64.1223 66.6044V66.6044ZM58.4372 65.2952C51.9421 42.6379 34.6015 4.9459 22.3176 11.9657C2.17355 23.516 58.4372 65.2952 58.4372 65.2952ZM73.8658 26.9749C72.5039 6.83084 55.4791 -27.1424 40.8096 -21.2213C26.1417 -15.3018 73.8674 26.9749 73.8674 26.9749H73.8658ZM79.7597 22.2594C79.7597 22.2594 121.145 -28.1374 101.605 -36.0216C82.0912 -43.9057 79.7581 22.2594 79.7581 22.2594H79.7597Z" fill="#F3AF47"/>
<path d="M94.4531 -16.2186C94.4531 -16.2186 67.6593 68.3857 1.18005 179.133" stroke="#9C4F5F" stroke-miterlimit="10"/>
<path fill-rule="evenodd" clip-rule="evenodd" d="M76.2754 30.6412C76.2754 30.6412 130.471 2.58747 135.789 18.1994C142.311 37.4776 76.2754 30.6412 76.2754 30.6412V30.6412Z" fill="#F3AF47"/>
<path d="M75.9612 136.831L18.6498 153.437L1.73022 122.686M119.338 21.8147L76.2737 30.6412L52.202 -6.71106L119.338 21.8147ZM110.012 58.3027L59.8788 67.3908L31.7199 26.3452L110.012 58.3027ZM88.5353 99.9765L41.4379 105.057L13.491 64.7196L88.5353 99.9765Z" stroke="#9C4F5F" stroke-miterlimit="10"/>
<path d="M548.235 22.5209C671.842 20.8194 733.957 158.357 803.5 71M358.566 67.2342C458.024 -26.1457 718.549 121.544 723.5 57.5L358.566 67.2342Z" stroke="#9C4F5F" stroke-width="0.5" stroke-miterlimit="22.926"/>
<path d="M1029.9 143.689C1120.66 227.619 1070.92 370.1 1181.51 354.699M861.623 45.4187C998.045 46.263 1085.11 332.802 1132.83 289.796L861.623 45.4187Z" stroke="#9C4F5F" stroke-width="0.5" stroke-miterlimit="22.926"/>
<path fill-rule="evenodd" clip-rule="evenodd" d="M280.562 6.91077L288.839 23.9356C289.277 24.8367 289.533 25.8152 289.592 26.8153C289.651 27.8154 289.513 28.8173 289.184 29.7638C288.856 30.7103 288.344 31.5828 287.678 32.3312C287.012 33.0797 286.205 33.6894 285.303 34.1256L283.05 35.1988L285.251 48.0074L267.413 51.0468L261.232 14.9257L280.562 6.91077V6.91077Z" fill="#F4B5AD"/>
<path fill-rule="evenodd" clip-rule="evenodd" d="M273.595 39.1281C273.595 39.1281 279.776 34.3872 278.756 29.096C278.756 29.096 268.251 25.7169 270.766 22.5482C273.281 19.378 279.567 24.0935 279.567 24.0935C279.567 24.0935 274.879 16.6543 275.585 14.401C275.585 14.401 288.63 12.1493 285.198 4.8153C285.198 4.8153 281.007 2.14263 272.704 3.08669C264.4 4.02915 262.252 18.6716 262.252 18.6716L273.595 39.1281V39.1281Z" fill="#A04E61"/>
<path fill-rule="evenodd" clip-rule="evenodd" d="M270.844 4.2365C268.644 3.03251 265.945 3.13775 263.51 3.71344C257.408 5.18054 252.064 9.5021 249.366 15.16C246.667 20.818 246.694 27.707 249.391 33.365C250.021 34.6742 250.78 35.9053 251.828 36.9004C254.551 39.4678 258.586 39.8872 262.305 40.2014C265.553 40.4629 271.289 41.0131 273.543 38.6561C273.543 38.6561 266.445 27.1297 267.177 19.0096C267.885 10.8385 270.844 4.2365 270.844 4.2365Z" fill="#A04E61"/>
<path fill-rule="evenodd" clip-rule="evenodd" d="M292.848 59.009L334.731 99.2684L356.812 106.944L354.848 116.662L323.048 112.941C323.048 112.941 282.16 85.3341 282.16 83.9451C282.186 82.5832 292.848 59.009 292.848 59.009V59.009Z" fill="#EF855A"/>
<path fill-rule="evenodd" clip-rule="evenodd" d="M268.565 44.8911L267.754 53.5343L255.312 65.217C253.931 66.5208 252.891 68.1436 252.284 69.9431C251.676 71.7426 251.52 73.6636 251.828 75.5377L264.847 153.934L281.846 153.333L317.731 141.256L318.962 136.673L292.848 59.036L288.394 55.4208L286.979 47.0647L268.565 44.8911Z" fill="#F7B74F"/>
<path fill-rule="evenodd" clip-rule="evenodd" d="M258.35 80.8292L308.302 114.67L338.999 87.168L333.342 77.9205L307.174 94.057L275.035 64.0914C275.01 64.0914 253.976 59.5337 258.35 80.8292V80.8292Z" fill="#F3AF47"/>
<path fill-rule="evenodd" clip-rule="evenodd" d="M354.847 74.5157L338.999 87.1679L333.343 77.9204L349.084 67.7319L354.847 74.5157V74.5157Z" fill="#F4B5AD"/>
<path fill-rule="evenodd" clip-rule="evenodd" d="M356.288 75.5891C354.877 76.3943 353.205 76.6066 351.639 76.1792C350.072 75.7519 348.739 74.72 347.933 73.3103C347.128 71.9001 346.916 70.2279 347.343 68.6612C347.77 67.0946 348.802 65.7618 350.212 64.9557C351.622 64.1505 353.294 63.9382 354.861 64.3656C356.427 64.7929 357.76 65.8248 358.566 67.2345C359.372 68.6447 359.584 70.3169 359.157 71.8836C358.729 73.4502 357.697 74.783 356.288 75.5891Z" fill="#F4B5AD"/>
<path fill-rule="evenodd" clip-rule="evenodd" d="M261.702 43.9218C256.988 46.9867 252.22 50.0772 248.343 54.1373C244.467 58.1974 241.481 63.4104 241.14 69.0157C241.062 70.4302 241.193 72.001 242.188 72.996C242.738 73.5462 243.499 73.8349 244.258 74.0438C250.099 75.6416 255.993 72.1843 261.048 68.8849C269.508 63.3833 278.1 57.7525 284.492 49.972C284.962 49.3963 285.434 48.6101 285.094 47.9818C284.884 47.5895 284.412 47.4061 283.994 47.2483C278.073 45.0747 267.859 45.4144 261.702 43.9218V43.9218Z" fill="#564A9B"/>
<path opacity="0.18" fill-rule="evenodd" clip-rule="evenodd" d="M248.999 77.8693C248.999 77.8693 237.474 91.3062 253.818 87.7692C270.138 84.2337 284.831 53.3782 284.831 53.3782C284.831 53.3782 263.249 81.4303 248.999 77.8693V77.8693Z" fill="#EF855A"/>
<path fill-rule="evenodd" clip-rule="evenodd" d="M470.938 84.8096C506.273 64.6926 512.795 68.1244 535.06 37.0583L543.834 41.6957C539.643 51.5173 533.357 66.2395 531.261 71.1368C529.166 76.0356 488.985 102.962 487.648 102.57C486.286 102.15 470.938 84.8096 470.938 84.8096Z" fill="#564A9B"/>
<path fill-rule="evenodd" clip-rule="evenodd" d="M553.499 21.8928C553.685 22.6771 553.715 23.4904 553.587 24.2863C553.459 25.0821 553.175 25.8449 552.751 26.5309C552.328 27.2169 551.774 27.8128 551.12 28.2844C550.466 28.756 549.726 29.0941 548.941 29.2794C548.157 29.4657 547.344 29.4956 546.548 29.3673C545.752 29.239 544.989 28.9551 544.303 28.5318C543.617 28.1086 543.021 27.5542 542.55 26.9004C542.078 26.2466 541.74 25.5063 541.555 24.7217C541.367 23.9389 541.337 23.1267 541.465 22.3319C541.593 21.5371 541.877 20.7756 542.301 20.0913C542.724 19.4069 543.28 18.8133 543.934 18.3446C544.589 17.8759 545.33 17.5415 546.114 17.3607C547.694 16.985 549.359 17.251 550.743 18.1006C552.127 18.9501 553.118 20.3138 553.499 21.8928Z" fill="#F4B5AD"/>
<path fill-rule="evenodd" clip-rule="evenodd" d="M535.06 37.0583L545.38 21.4734L551.089 23.5688L543.808 41.6956L535.06 37.0583Z" fill="#F4B5AD"/>
<path fill-rule="evenodd" clip-rule="evenodd" d="M475.992 81.6408C480.891 80.3045 489.351 98.5875 488.173 103.093C484.303 117.853 484.159 133.343 487.753 148.173L493.255 159.592L434.555 172.847C434.555 172.847 428.346 148.512 432.668 120.958C433.193 119.988 442.125 81.2469 443.198 77.45L446.001 77.4229L475.992 81.6408Z" fill="#564A9B"/>
<path fill-rule="evenodd" clip-rule="evenodd" d="M476.831 48.6626L480.158 64.0641C480.333 64.8813 480.346 65.725 480.195 66.547C480.043 67.369 479.731 68.153 479.276 68.854C478.821 69.555 478.231 70.1592 477.542 70.6319C476.853 71.1046 476.077 71.4365 475.259 71.6085L473.243 72.0279L472.483 82.8192L457.448 81.7444L459.622 51.3082L476.831 48.6626Z" fill="#F4B5AD"/>
<path fill-rule="evenodd" clip-rule="evenodd" d="M458.024 73.3373C458.024 73.3373 470.754 70.7172 470.99 66.2393C470.99 66.2393 463.184 61.4186 465.83 59.3503C468.475 57.2804 472.641 62.3355 472.641 62.3355C472.641 62.3355 470.335 55.3939 471.357 53.7179C471.357 53.7179 482.359 54.4769 481.048 47.8765C481.048 47.8765 478.193 44.8913 471.304 43.9999C464.415 43.11 459.779 54.5296 459.779 54.5296L458.024 73.3373V73.3373Z" fill="#A04E61"/>
<path fill-rule="evenodd" clip-rule="evenodd" d="M467.427 37.2689C460.8 45.4145 456.898 53.4565 453.519 63.4105L453.126 64.9813C449.353 58.6169 448.018 50.8364 449.458 43.5551C449.851 41.5904 450.428 39.6258 451.528 37.9498C452.374 36.6792 453.483 35.6053 454.78 34.8008C456.077 33.9963 457.532 33.48 459.046 33.2869C460.56 33.1129 462.095 33.266 463.545 33.7359C464.996 34.2058 466.328 34.9815 467.453 36.0107L467.427 37.2689V37.2689Z" fill="#E0A821"/>
<path fill-rule="evenodd" clip-rule="evenodd" d="M468.344 31.7669C469.732 29.4881 472.771 24.2496 475.286 20.164C476.229 18.5917 478.638 19.5357 478.271 21.317C476.648 29.0704 473.636 39.0228 471.827 44.6807C470.387 42.5327 467.585 43.8435 465.437 45.2835C463.289 46.7235 461.613 47.9291 460.277 50.1553C456.662 56.3107 455.719 59.5065 453.126 64.9555C453.152 64.9811 447.18 66.6315 468.344 31.7669V31.7669Z" fill="#F9C028"/>
<path fill-rule="evenodd" clip-rule="evenodd" d="M476.935 34.3344C477.512 33.6534 478.298 32.947 479.163 33.0778C480.053 33.234 480.525 34.2817 480.394 35.1987C480.263 36.1156 479.713 36.9018 479.188 37.6354C479.896 36.9273 480.577 36.2209 481.284 35.4873C481.65 35.1205 482.175 34.7011 482.62 34.9371C483.118 35.1987 483.012 35.9849 482.803 36.535C482.437 37.6083 482.043 38.6831 481.677 39.7563C482.462 38.9717 483.326 38.1855 484.374 37.8969C485.422 37.6083 486.733 38.0803 486.994 39.1535C487.099 39.6 487.02 40.0704 486.889 40.5169C485.972 43.9997 483.117 46.6724 480.183 48.6881C474.395 52.67 467.585 55.0541 460.696 55.5516C462.084 60.7901 461.744 66.5262 459.752 71.634C459.36 72.6035 458.679 73.7294 457.684 73.6768C457.237 73.6513 456.871 73.4152 456.531 73.1266C453.78 70.9275 452.838 66.9456 453.388 63.3576C453.938 59.7679 455.745 56.4941 457.709 53.4036C461.35 47.693 465.96 42.1403 472.168 39.7308C472.143 39.7308 473.191 38.656 476.935 34.3344V34.3344Z" fill="#A04E61"/>
<path fill-rule="evenodd" clip-rule="evenodd" d="M462.608 92.1706C436.153 113.755 422.349 119.202 407.313 149.927L397.91 146.811C400.423 136.442 402.92 126.069 405.401 115.692C406.659 110.506 441.81 77.2922 443.172 77.45C444.587 77.6334 462.608 92.1706 462.608 92.1706Z" fill="#564A9B"/>
<path fill-rule="evenodd" clip-rule="evenodd" d="M801.893 86.8708C801.893 86.8708 801.029 77.7555 802.601 70.1855C802.601 70.1855 804.8 74.0096 801.893 86.8708Z" fill="#207F7C"/>
<path fill-rule="evenodd" clip-rule="evenodd" d="M808.443 91.1924C808.443 91.1924 803.727 79.9037 802.732 69.61C802.732 69.61 807.054 73.6174 808.443 91.1924Z" fill="#207F7C"/>
<path fill-rule="evenodd" clip-rule="evenodd" d="M811.087 85.7704C811.087 85.7704 805.01 77.8065 802.05 69.8969C802.075 69.8969 806.319 72.1757 811.087 85.7704Z" fill="#207F7C"/>
<path fill-rule="evenodd" clip-rule="evenodd" d="M815.357 80.6897C815.357 80.6897 809.438 73.6955 802.941 69.5302C802.941 69.5302 804.12 73.7736 815.357 80.6897Z" fill="#207F7C"/>
<path fill-rule="evenodd" clip-rule="evenodd" d="M784.736 14.0255L792.097 37.9394L791.705 38.0191C791.233 38.1228 771.43 44.645 771.299 44.6722C771.613 43.6771 774.206 40.1401 774.862 39.0924C778.294 33.696 782.354 26.2057 784.003 19.2385C784.108 18.8973 784.736 14.051 784.736 14.0255V14.0255Z" fill="#248F8B"/>
<path fill-rule="evenodd" clip-rule="evenodd" d="M771.325 44.6992L792.097 37.8628L804.592 75.8689C804.25 74.8738 802.732 72.5424 801.763 71.9667C798.462 70.0021 795.869 67.095 794.376 66.2833C790.369 64.0826 771.483 46.978 771.325 44.6992V44.6992Z" fill="#207F7C"/>
<path fill-rule="evenodd" clip-rule="evenodd" d="M784.633 14L792.07 37.8102L792.437 37.654C792.856 37.4706 813.262 31.2098 813.366 31.1572C812.528 30.5289 808.39 29.1671 807.21 28.695C801.291 26.2855 793.617 22.5651 788.246 17.8512C787.985 17.5896 784.658 14.0271 784.633 14V14Z" fill="#37B4B1"/>
<path fill-rule="evenodd" clip-rule="evenodd" d="M813.393 31.1318L792.045 37.6796L804.434 75.8181C804.12 74.8214 804.016 72.045 804.461 70.9973C806.032 67.4874 806.425 63.6108 807.185 62.0655C809.149 58.0055 814.571 33.122 813.393 31.1318V31.1318Z" fill="#229E9D"/>
<path fill-rule="evenodd" clip-rule="evenodd" d="M864.617 51.5314C864.617 51.5314 862.571 48.4001 861.699 45.364C861.699 45.364 863.222 46.3283 864.617 51.5314Z" fill="#7F2020"/>
<path fill-rule="evenodd" clip-rule="evenodd" d="M867.807 51.8478C867.807 51.8478 863.955 48.6634 861.637 45.131C861.637 45.131 863.962 45.7577 867.807 51.8478Z" fill="#7F2020"/>
<path fill-rule="evenodd" clip-rule="evenodd" d="M867.732 49.3844C867.732 49.3844 864.019 47.6612 861.445 45.3645C861.454 45.3596 863.422 45.3763 867.732 49.3844Z" fill="#7F2020"/>
<path fill-rule="evenodd" clip-rule="evenodd" d="M868.309 46.7351C868.309 46.7351 864.838 45.3324 861.697 45.0624C861.697 45.0624 862.931 46.3724 868.309 46.7351Z" fill="#7F2020"/>
<path fill-rule="evenodd" clip-rule="evenodd" d="M844.556 28.4578L851.767 35.7036L851.64 35.8071C851.489 35.9343 845.57 42.0598 845.528 42.0945C845.452 41.675 845.717 39.9028 845.754 39.3994C845.968 36.7954 846.011 33.3148 845.282 30.4821C845.255 30.3387 844.561 28.467 844.556 28.4578V28.4578Z" fill="#8F2424"/>
<path fill-rule="evenodd" clip-rule="evenodd" d="M845.542 42.0993L851.752 35.6758L863.5 47.0401C863.187 46.7453 862.195 46.1911 861.735 46.1674C860.167 46.0851 858.677 45.5273 857.983 45.5178C856.115 45.4845 846.033 42.8932 845.542 42.0993V42.0993Z" fill="#7F2020"/>
<path fill-rule="evenodd" clip-rule="evenodd" d="M844.513 28.4683L851.732 35.662L851.835 35.5358C851.952 35.3897 858.139 29.244 858.166 29.2053C857.744 29.1374 855.988 29.4323 855.472 29.4861C852.873 29.7411 849.391 29.8558 846.553 29.1732C846.408 29.1284 844.528 28.4732 844.513 28.4683V28.4683Z" fill="#B43737"/>
<path fill-rule="evenodd" clip-rule="evenodd" d="M858.171 29.1909L851.698 35.6196L863.433 47.0518C863.13 46.7512 862.564 45.7672 862.526 45.3037C862.426 43.7359 861.831 42.2593 861.811 41.5562C861.749 39.7145 858.976 29.6863 858.171 29.1909V29.1909Z" fill="#9E2222"/>
<path fill-rule="evenodd" clip-rule="evenodd" d="M722.355 71.0474C722.355 71.0474 721.613 63.1605 722.968 56.6129C722.968 56.6129 724.871 59.9191 722.355 71.0474Z" fill="#312871"/>
<path fill-rule="evenodd" clip-rule="evenodd" d="M728.016 74.7896C728.016 74.7896 723.936 65.0154 723.081 56.1122C723.098 56.1122 726.823 59.5804 728.016 74.7896Z" fill="#312871"/>
<path fill-rule="evenodd" clip-rule="evenodd" d="M730.323 70.1126C730.323 70.1126 725.049 63.241 722.516 56.3871C722.516 56.3704 726.194 58.3382 730.323 70.1126Z" fill="#312871"/>
<path fill-rule="evenodd" clip-rule="evenodd" d="M734 65.7095C734 65.7095 728.887 59.6608 723.259 56.064C723.259 56.064 724.291 59.7256 734 65.7095Z" fill="#312871"/>
<path fill-rule="evenodd" clip-rule="evenodd" d="M707.517 8.0304L713.888 28.7238L713.549 28.8043C713.146 28.8848 696.001 34.5467 695.888 34.5624C696.162 33.6914 698.388 30.6592 698.968 29.7401C701.936 25.0788 705.452 18.5794 706.872 12.563C706.968 12.2567 707.517 8.04709 707.517 8.0304V8.0304Z" fill="#5B57A3"/>
<path fill-rule="evenodd" clip-rule="evenodd" d="M695.904 34.5478L713.871 28.6287L724.677 61.5157C724.388 60.6605 723.081 58.6289 722.227 58.1291C719.355 56.4352 717.114 53.9185 715.823 53.2095C712.388 51.338 696.049 36.548 695.904 34.5478V34.5478Z" fill="#412C89"/>
<path fill-rule="evenodd" clip-rule="evenodd" d="M707.436 8L713.871 28.5805L714.194 28.4351C714.565 28.2741 732.21 22.8705 732.307 22.8224C731.581 22.2735 728 21.0961 727.001 20.6935C721.871 18.6128 715.242 15.3871 710.581 11.3062C710.339 11.1127 707.436 8.01571 707.436 8V8Z" fill="#564A9B"/>
<path fill-rule="evenodd" clip-rule="evenodd" d="M732.291 22.8381L713.823 28.5L724.549 61.499C724.291 60.628 724.178 58.2252 724.581 57.3219C725.92 54.2739 726.291 50.9353 726.936 49.6127C728.63 46.0639 733.323 24.532 732.291 22.8381V22.8381Z" fill="#312871"/>
<path fill-rule="evenodd" clip-rule="evenodd" d="M409.933 -54.5933L415.669 -44.1146L426.146 -38.3785L415.669 -32.6424L409.933 -22.1653L404.197 -32.6424L393.718 -38.3785L404.197 -44.1146L409.933 -54.5933ZM828.191 31.0349L832.068 38.1328L839.168 42.0095L832.068 45.8862L828.191 52.9842L824.315 45.8862L817.217 42.0095L824.315 38.1328L828.191 31.0349ZM614.217 47.7456L616.051 51.1247L619.455 52.9842L616.051 54.8435L614.217 58.2227L612.357 54.8435L608.978 52.9842L612.357 51.1247L614.217 47.7456Z" fill="#EB6B59"/>
<path d="M1248.39 101.662C1247.41 91.1705 1232.33 88.4819 1225.4 92.3969C1221.15 94.7985 1217.22 99.0227 1216 106.484C1213 124.845 1216.37 143.288 1230.72 144.006C1246.7 144.803 1251.28 132.208 1248.39 101.662V101.662Z" fill="#E9B585"/>
<path d="M1212.91 102.22C1212.91 102.22 1213.69 88.93 1233.03 88.222C1242.24 87.8839 1248.59 94.3392 1249.43 97.7263C1249.5 97.9958 1249.57 98.235 1249.67 98.4136C1249.83 98.7134 1249.87 99.8489 1250.55 99.7787C1254.98 99.3513 1256.64 110.291 1250.83 112.463L1250.79 112.562C1250.79 112.562 1246.2 109.074 1246.82 116.099C1247.65 125.385 1243.16 120.234 1242.32 107.988C1242.32 107.988 1212.89 113.568 1212.91 102.22V102.22Z" fill="#382C4D"/>
</g>
<defs>
<radialGradient id="paint0_radial" cx="0" cy="0" r="1" gradientUnits="userSpaceOnUse" gradientTransform="translate(720 289.14) rotate(90) scale(816.478 720)">
<stop stop-color="#2B90EE" stop-opacity="0.63"/>
<stop offset="1" stop-color="#8EB8F7"/>
</radialGradient>
<clipPath id="clip0">
<rect width="1440" height="101" fill="white"/>
</clipPath>
</defs>
</svg>
