<svg xmlns="http://www.w3.org/2000/svg" width="20" height="20" viewBox="0 0 20 20">
    <path fill="#171923" d="M10 0c5.527 0 10 4.473 10 10 0 5.434-4.323 9.848-9.72 9.996L10 20H.781c-.395 0-.722-.294-.774-.675L0 19.219V10C0 4.566 4.323.152 9.72.004L10 0zm.007 1.1l-.257.003C4.937 1.235 1.1 5.173 1.1 10l-.002 8.9h8.887l.265-.003c4.813-.132 8.65-4.07 8.65-8.897 0-4.83-3.836-8.754-8.63-8.896l-.263-.004zm-.313 12.307c.572 0 1.048.477 1.048 1.048 0 .522-.403.983-.933 1.042l-.115.007c-.586 0-1.035-.49-1.035-1.049 0-.533.403-.984.922-1.042l.113-.006zm.177-7.938c1.743 0 2.9.967 2.9 2.247 0 1.066-.804 1.887-1.284 2.296l-.241.195c-.65.508-.746.882-.76 1.434l-.003.268c0 .24-.117.516-.668.554l-.135.005c-.558 0-.749-.205-.749-.913 0-1.17.518-1.729.912-2.07l.21-.166.21-.163c.391-.307.792-.676.792-1.209 0-.585-.474-.885-1.09-.922l-.135-.004c-1.32 0-1.115.946-1.722 1.04l-.103.008c-.367 0-.817-.245-.817-.776 0-.704.776-1.734 2.458-1.819l.225-.005z"/>
</svg>
